<svg xmlns="http://www.w3.org/2000/svg" xml:space="preserve" style="fill-rule:evenodd;clip-rule:evenodd;stroke-linejoin:round;stroke-miterlimit:2" viewBox="0 0 89 40"><path d="M295.98 0h87.408v38.255H295.98z" style="fill:none" transform="matrix(1.01821 0 0 1.04561 -301.37 0)"/><path d="M8.445 39.125c-.305 0-.602-.004-.904-.011-.559-.016-1.222-.047-1.869-.163a5.9 5.9 0 0 1-1.657-.548 5.4 5.4 0 0 1-1.397-1.017 5.4 5.4 0 0 1-1.021-1.396 5.7 5.7 0 0 1-.543-1.657c-.122-.673-.153-1.355-.166-1.875-.006-.211-.015-.913-.015-.913V8.444s.009-.691.015-.895c.013-.524.044-1.206.166-1.872a5.7 5.7 0 0 1 .543-1.661 5.557 5.557 0 0 1 2.417-2.42 5.8 5.8 0 0 1 1.653-.544C6.341.931 7.023.9 7.543.887l.902-.012h72.259l.913.013c.513.013 1.195.043 1.858.163a6 6 0 0 1 1.671.548c.513.263.982.605 1.392 1.016.409.406.752.878 1.023 1.404.258.511.434 1.053.535 1.649.116.631.152 1.279.174 1.887.003.283.003.587.003.89.008.375.008.732.008 1.092v20.929c0 .363 0 .718-.008 1.075 0 .325 0 .623-.004.93-.021.589-.057 1.236-.171 1.854a5.8 5.8 0 0 1-.54 1.67c-.27.52-.612.989-1.016 1.386a5.4 5.4 0 0 1-1.399 1.023 5.9 5.9 0 0 1-1.668.55c-.641.116-1.304.147-1.869.163-.293.007-.6.011-.897.011l-1.084.002z" style="fill-rule:nonzero" transform="matrix(1 0 0 1 -.078 .315)"/><text x="333.01" y="45.624" style="font-family:&quot;AvenirNext-Regular&quot;,&quot;Avenir Next&quot;,sans-serif;font-size:5.417px;fill:#fff" transform="matrix(1 0 0 1 -293.566 -21.339)">Whatever you</text><text x="333.01" y="52.124" style="font-family:&quot;AvenirNext-Regular&quot;,&quot;Avenir Next&quot;,sans-serif;font-size:5.417px;fill:#fff" transform="matrix(1 0 0 1 -293.566 -21.339)">damn well please</text><text x="331.71" y="20" style="font-family:&quot;AvenirNext-Medium&quot;,&quot;Avenir Next&quot;,sans-serif;font-weight:500;font-size:9.167px;fill:#fff" transform="matrix(1 0 0 1 -292.979 -3.61)">Listen on</text><path d="M437 0H75C33.645 0 0 33.645 0 75v362c0 41.355 33.645 75 75 75h362c41.355 0 75-33.645 75-75V75c0-41.355-33.645-75-75-75M106.176 446.374c-24.293 0-44.057-19.764-44.057-44.056 0-24.293 19.764-44.057 44.057-44.057s44.057 19.764 44.057 44.057c-.001 24.292-19.764 44.056-44.057 44.056m149.036-8.093c-22.056 0-40-17.944-40-40 0-57.898-47.103-105-105-105-22.056 0-40-17.944-40-40s17.944-40 40-40c102.009 0 185 82.99 185 185 0 22.056-17.943 40-40 40m150 0c-22.056 0-40-17.944-40-40 0-68.112-26.524-132.148-74.688-180.313-48.163-48.163-112.199-74.688-180.313-74.688-22.056 0-40-17.944-40-40s17.944-40 40-40c89.481 0 173.607 34.846 236.881 98.119s98.12 147.399 98.12 236.881c0 22.057-17.943 40.001-40 40.001" style="fill:#fff;fill-rule:nonzero" transform="matrix(.04667 0 0 .04667 7.645 8.37)"/></svg>